<?xml version="1.0" standalone="no"?>
<!DOCTYPE svg PUBLIC "-//W3C//DTD SVG 1.1//EN" "http://www.w3.org/Graphics/SVG/1.1/DTD/svg11.dtd" >
<svg xmlns="http://www.w3.org/2000/svg" xmlns:xlink="http://www.w3.org/1999/xlink" version="1.1">
<metadata>
Created by FontForge 20150824 at Mon Jun 20 03:52:51 2016
 By Everything Fonts
Typeface (c) (Mehmet Reha Tugcu). 2015. All Rights Reserved
</metadata>
<defs>
<font id="Timber" horiz-adv-x="996" >
  <font-face 
    font-family="Timber"
    font-weight="400"
    font-stretch="normal"
    units-per-em="2048"
    panose-1="2 0 5 0 0 0 0 0 0 0"
    ascent="1638"
    descent="-410"
    x-height="1402"
    cap-height="1402"
    bbox="-5 -196 1658 1434"
    underline-thickness="150"
    underline-position="-442"
    unicode-range="U+001D-F002"
  />
<missing-glyph horiz-adv-x="1024" 
d="M100 0v1434h824v-1434h-824zM150 50h724v1334h-724v-1334zM325 1148q31 28 58 43q53 30 112 30q92 0 148 -47.5t56 -127.5q0 -49 -23 -98.5t-87 -129.5q-63 -80 -99 -132t-36 -99q0 -38 24 -133h-32q-35 97 -35 148q0 76 81.5 218t81.5 217q0 57 -33 90t-91 33
q-38 0 -69 -17q-26 -15 -56 -40v45zM389 334l57 58q11 10 20 10q10 0 22 -11l56 -60q9 -11 9 -20q0 -11 -10 -22l-56 -62q-14 -14 -21 -14q-11 0 -20 10l-61 71q-7 9 -7 18q0 10 11 22z" />
    <glyph glyph-name=".notdef" horiz-adv-x="1024" 
d="M100 0v1434h824v-1434h-824zM150 50h724v1334h-724v-1334zM325 1148q31 28 58 43q53 30 112 30q92 0 148 -47.5t56 -127.5q0 -49 -23 -98.5t-87 -129.5q-63 -80 -99 -132t-36 -99q0 -38 24 -133h-32q-35 97 -35 148q0 76 81.5 218t81.5 217q0 57 -33 90t-91 33
q-38 0 -69 -17q-26 -15 -56 -40v45zM389 334l57 58q11 10 20 10q10 0 22 -11l56 -60q9 -11 9 -20q0 -11 -10 -22l-56 -62q-14 -14 -21 -14q-11 0 -20 10l-61 71q-7 9 -7 18q0 10 11 22z" />
    <glyph glyph-name=".null" horiz-adv-x="0" 
 />
    <glyph glyph-name=".null" horiz-adv-x="0" 
 />
    <glyph glyph-name="nonmarkingreturn" horiz-adv-x="508" 
 />
    <glyph glyph-name="space" unicode=" " horiz-adv-x="508" 
 />
    <glyph glyph-name="space" unicode="&#xa0;" horiz-adv-x="508" 
 />
    <glyph glyph-name="exclam" unicode="!" horiz-adv-x="639" 
d="M194 300h75v1102h-75v-1102zM319 300h75v1102h-75v-1102zM319 200v-200h-50v200h-75v-200h200v200h-75z" />
    <glyph glyph-name="quotedbl" unicode="&#x22;" horiz-adv-x="530" 
d="M276 1433v-401h-50v401h-75v-401h200v401h-75z" />
    <glyph glyph-name="quotesingle" unicode="'" horiz-adv-x="530" 
d="M276 1433v-401h-50v401h-75v-401h200v401h-75z" />
    <glyph glyph-name="comma" unicode="," horiz-adv-x="466" 
d="M237 205v-401h-50v401h-75v-401h200v401h-75z" />
    <glyph glyph-name="hyphen" unicode="-" horiz-adv-x="979" 
d="M119 400h701v75h-701v-75zM119 525h701v75h-701v-75z" />
    <glyph glyph-name="hyphen" unicode="&#xad;" horiz-adv-x="979" 
d="M119 400h701v75h-701v-75zM119 525h701v75h-701v-75z" />
    <glyph glyph-name="period" unicode="." horiz-adv-x="452" 
d="M229 200v-200h-50v200h-75v-200h200v200h-75z" />
    <glyph glyph-name="zero" unicode="0" 
d="M711 300q0 -41 -29 -70q-30 -30 -71 -30h-200q-42 0 -71 30q-30 29 -30 70v802q0 41 30 71q29 29 71 29h200q41 0 71 -29q29 -30 29 -71v-802zM411 1277q-73 0 -124 -51q-52 -52 -52 -124v-802q0 -72 52 -123q51 -52 124 -52h200q72 0 124 52q51 51 51 123v802
q0 72 -51 124q-52 51 -124 51h-200zM836 300q0 -93 -66 -159t-159 -66h-201q-93 0 -159 66t-66 159v802q0 93 66 159t159 66h201q93 0 159 -66t66 -159v-802zM410 1402q-124 0 -212 -88t-88 -212v-802q0 -124 88 -212t212 -88h201q124 0 212 88t88 212v802q0 124 -88 212
t-212 88h-201z" />
    <glyph glyph-name="one" unicode="1" horiz-adv-x="739" 
d="M354 1245l-168 -241l61 -43l168 241v-1202h76v1202q0 55 -53 71q-52 17 -84 -28zM351 1392q-62 -21 -100 -75l-168 -241l82 -57l-20 14l168 241q53 75 140 47q88 -27 88 -119v-1202h75v1202q0 66 -39 118q-38 53 -101 73t-125 -1z" />
    <glyph glyph-name="two" unicode="2" 
d="M188 701q0 52 37 89q37 36 88 36h401q31 0 53 22t22 54v300q0 31 -22 53t-53 22h-601v-75h601v-300h-401q-83 0 -141 -59q-59 -59 -59 -142v-501q0 -83 59 -141q58 -59 141 -59h601v75h-601q-51 0 -88 37t-37 88v501zM714 701q83 0 142 59q58 59 58 142v300q0 83 -58 142
q-59 58 -142 58h-601v-75h601q52 0 88 -36q37 -37 37 -89v-300q0 -52 -37 -89q-36 -37 -88 -37h-401q-31 0 -53 -22t-22 -53v-501q0 -31 22 -53t53 -22h601v75h-601v501h401z" />
    <glyph glyph-name="three" unicode="3" 
d="M767 1102q0 72 -51 124q-52 51 -124 51h-501v-75h501q41 0 71 -29q29 -30 29 -71v-201h-601v-75h676v276zM91 1402v-75h501q93 0 159 -66t66 -159v-801q0 -94 -66 -160t-159 -66h-501v-75h501q124 0 212 88t88 213v801q0 124 -88 212t-212 88h-501zM767 776h-676v-75h601
v-401q0 -41 -29 -70q-30 -30 -71 -30h-501v-75h501q72 0 124 52q51 51 51 123v476z" />
    <glyph glyph-name="four" unicode="4" 
d="M764 776v626h-75v-551h-401v551h-75v-551q0 -31 22 -53t53 -22h476zM288 726q-51 0 -88 37t-37 88v551h-75v-551q0 -82 59 -141q58 -59 141 -59h401v-651h75v726h-476zM814 1402v-1402h75v1402h-75z" />
    <glyph glyph-name="five" unicode="5" 
d="M306 1402q-83 0 -141 -58q-59 -59 -59 -142v-300q0 -83 59 -142q58 -59 141 -59h401v-501h-601v-75h601q31 0 53 22t22 53v501q0 31 -22 53t-53 22h-401q-51 0 -88 37t-37 89v300q0 52 37 89q37 36 88 36h601v75h-601zM231 902q0 -32 22 -54t53 -22h401q52 0 88 -36
q37 -37 37 -89v-501q0 -51 -37 -88q-36 -37 -88 -37h-601v-75h601q83 0 142 59q58 58 58 141v501q0 83 -58 142q-59 59 -142 59h-401v300h601v75h-601q-31 0 -53 -22t-22 -53v-300z" />
    <glyph glyph-name="six" unicode="6" 
d="M321 701h401v-501h-401v501zM722 125q31 0 53 22t22 53v501q0 31 -22 53t-53 22h-476v-576q0 -31 22 -53t53 -22h401zM922 1327v75h-601q-83 0 -141 -58q-59 -59 -59 -142v-1002q0 -83 59 -141q58 -59 141 -59h401q83 0 142 59q58 58 58 141v501q0 83 -58 142
q-59 59 -142 59h-401v300h601v75h-601q-31 0 -53 -22t-22 -53v-376h476q52 0 88 -36q37 -37 37 -89v-501q0 -51 -37 -88q-36 -37 -88 -37h-401q-51 0 -88 37t-37 88v1002q0 52 37 89q37 36 88 36h601z" />
    <glyph glyph-name="seven" unicode="7" 
d="M657 1277h-575v-75h575l-281 -1202h78l276 1185q8 36 -14 64q-23 28 -59 28zM657 1403h-575v-76h575q60 0 98 -47t24 -106l-274 -1174h77l270 1157q22 94 -38 170t-157 76z" />
    <glyph glyph-name="eight" unicode="8" 
d="M835 200q0 -51 -37 -88q-36 -37 -88 -37h-401q-51 0 -88 37t-37 88v1002q0 52 37 89q37 36 88 36h401q52 0 88 -36q37 -37 37 -89v-1002zM309 1402q-83 0 -141 -58q-59 -59 -59 -142v-1002q0 -83 59 -141q58 -59 141 -59h401q83 0 142 59q58 58 58 141v1002q0 83 -58 142
q-59 58 -142 58h-401zM309 701h401v-501h-401v501zM234 200q0 -31 22 -53t53 -22h401q31 0 53 22t22 53v576h-551v-576zM710 902h-401v300h401v-300zM309 1277q-31 0 -53 -22t-22 -53v-376h551v376q0 31 -22 53t-53 22h-401z" />
    <glyph glyph-name="nine" unicode="9" 
d="M287 1402q-83 0 -141 -58q-59 -59 -59 -142v-300q0 -83 59 -142q58 -59 141 -59h401v-701h75v776h-476q-51 0 -88 37t-37 89v300q0 52 37 89q37 36 88 36h401q52 0 88 -36q37 -37 37 -89v-1202h75v1202q0 83 -58 142q-59 58 -142 58h-401zM688 902h-401v300h401v-300z
M287 1277q-31 0 -53 -22t-22 -53v-300q0 -32 22 -54t53 -22h476v376q0 31 -22 53t-53 22h-401z" />
    <glyph glyph-name="question" unicode="?" horiz-adv-x="899" 
d="M395 200v-200h-51v200h-75v-200h201v200h-75zM69 1402v-75h551q52 0 88 -36q37 -37 37 -89v-300q0 -52 -37 -89q-36 -37 -88 -37h-150q-31 0 -53 -22t-22 -53v-401h75v401h150q83 0 142 59q58 59 58 142v300q0 83 -58 142q-59 58 -142 58h-551zM620 826q31 0 53 22t22 54
v300q0 31 -22 53t-53 22h-551v-75h551v-300h-150q-83 0 -142 -59t-59 -142v-400h75v400q0 52 37 89q37 36 89 36h150z" />
    <glyph glyph-name="A" unicode="A" horiz-adv-x="1017" 
d="M173 776v-776h75v701h451v-701h75v776h-601zM699 901h-451v201q0 41 30 71q29 29 71 29h350v-301zM173 826h601v451h-425q-73 0 -124 -51q-52 -52 -52 -124v-276zM348 1402q-124 0 -212 -88t-88 -212v-1102h75v1102q0 93 66 159t159 66h476v-1327h75v1402h-551z" />
    <glyph glyph-name="B" unicode="B" horiz-adv-x="1017" 
d="M260 701h451v-401q0 -41 -29 -70q-30 -30 -71 -30h-351v501zM185 125h426q72 0 124 52q51 51 51 123v476h-601v-651zM836 300q0 -93 -66 -159t-159 -66h-476v1252h376q134 0 230 -95q95 -96 95 -230v-702zM60 1402v-1402h551q124 0 212 88t88 212v702q0 165 -117 283
q-118 117 -283 117h-451zM711 901h-451v301h251q83 0 141 -59q59 -58 59 -141v-101zM185 1277v-451h601v176q0 114 -81 194q-80 81 -194 81h-326z" />
    <glyph glyph-name="C" unicode="C" horiz-adv-x="882" 
d="M162 401q0 -114 81 -195t195 -81h400v75h-400q-83 0 -142 59t-59 142v601q0 83 59 141q59 59 142 59h400v75h-400q-114 0 -195 -81q-81 -80 -81 -194v-601zM438 1402q-166 0 -284 -117q-117 -118 -117 -283v-601q0 -166 117 -284q118 -117 284 -117h400v75h-400
q-135 0 -230 96q-96 95 -96 230v601q0 134 96 230q95 95 230 95h400v75h-400z" />
    <glyph glyph-name="D" unicode="D" horiz-adv-x="1040" 
d="M733 401q0 -83 -59 -142q-58 -59 -141 -59h-251v1002h251q83 0 141 -59q59 -58 59 -141v-601zM207 1277v-1152h326q114 0 194 81q81 81 81 195v601q0 114 -81 194q-80 81 -194 81h-326zM858 401q0 -135 -95 -230q-96 -96 -230 -96h-376v1252h376q134 0 230 -95
q95 -96 95 -230v-601zM82 1402v-1402h451q165 0 283 117q117 118 117 284v601q0 165 -117 283q-118 117 -283 117h-451z" />
    <glyph glyph-name="E" unicode="E" horiz-adv-x="905" 
d="M170 826h676v75h-601v201q0 41 30 71q29 29 71 29h500v75h-500q-73 0 -124 -51q-52 -52 -52 -124v-276zM170 300q0 -72 52 -123q51 -52 124 -52h500v75h-500q-42 0 -71 30q-30 29 -30 70v401h601v75h-676v-476zM345 1402q-124 0 -212 -88t-88 -212v-801q0 -125 88 -213
t212 -88h501v75h-501q-93 0 -159 66t-66 160v801q0 93 66 159t159 66h501v75h-501z" />
    <glyph glyph-name="F" unicode="F" horiz-adv-x="900" 
d="M173 776v-776h75v701h601v75h-676zM173 826h676v76h-601v200q0 41 30 71q29 29 71 29h500v75h-500q-73 0 -124 -51q-52 -52 -52 -124v-276zM348 1402q-124 0 -212 -88t-88 -212v-1102h75v1102q0 93 66 159t159 66h501v75h-501z" />
    <glyph glyph-name="G" unicode="G" horiz-adv-x="1014" 
d="M387 901v-75h350q52 0 89 -36q36 -37 36 -89v-626h-425q-135 0 -230 96q-96 95 -96 230v601q0 134 96 230q95 95 230 95h400v75h-400q-166 0 -284 -117q-117 -118 -117 -283v-601q0 -166 117 -284q118 -117 284 -117h500v701q0 83 -58 142q-59 58 -142 58h-350zM837 1202
v75h-400q-114 0 -195 -81q-81 -80 -81 -194v-601q0 -114 81 -195t195 -81h375v576q0 31 -22 53t-53 22h-350v-75h350v-501h-300q-83 0 -142 59t-59 142v601q0 83 59 141q59 59 142 59h400z" />
    <glyph glyph-name="H" unicode="H" horiz-adv-x="1030" 
d="M60 0h75v1402h-75v-1402zM711 1402v-501h-451v501h-75v-576h601v576h-75zM185 776v-776h75v701h451v-701h75v776h-601zM836 0h75v1402h-75v-1402z" />
    <glyph glyph-name="I" unicode="I" horiz-adv-x="378" 
d="M184 0h75v1402h-75v-1402zM59 0h75v1402h-75v-1402z" />
    <glyph glyph-name="J" unicode="J" horiz-adv-x="562" 
d="M321 1402h-76v-1102q0 -41 -29 -70q-29 -30 -71 -30h-150v-75h150q73 0 124 52q52 51 52 123v1102zM371 1402v-1101q0 -94 -66 -160q-67 -66 -160 -66h-150v-75h150q125 0 213 88t88 213v1101h-75z" />
    <glyph glyph-name="K" unicode="K" horiz-adv-x="931" 
d="M796 1402l-583 -582l590 -820h93l-585 812l591 590h-106zM619 1402l-360 -359v359h-75v-540l541 540h-106zM184 0h75v541l390 -541h92l-557 774v-774zM59 0h75v1402h-75v-1402z" />
    <glyph glyph-name="L" unicode="L" horiz-adv-x="891" 
d="M130 1402h-75v-1102q0 -124 88 -212t213 -88h500v75h-500q-94 0 -160 66t-66 159v1102zM356 200q-42 0 -71 30q-30 29 -30 70v1102h-75v-1102q0 -72 52 -123q51 -52 124 -52h500v75h-500z" />
    <glyph glyph-name="M" unicode="M" horiz-adv-x="1172" 
d="M257 1277q-31 0 -53 -22t-22 -53v-1202h75v1202h201v-451h75v526h-276zM257 1402q-83 0 -141 -58q-59 -59 -59 -142v-1202h75v1202q0 52 37 88q37 37 88 37h601q52 0 89 -37q37 -36 37 -88v-1202h75v1202q0 83 -59 142q-59 58 -142 58h-601zM583 1277v-526h75v451h200
v-1202h75v1202q0 31 -22 53t-53 22h-275z" />
    <glyph glyph-name="N" unicode="N" horiz-adv-x="1028" 
d="M273 1289l1 -3l463 -1149q10 -15 28 -11q18 5 18 24v1253h-75v-993l-367 910l-3 6q-26 45 -72 65q-47 20 -97 7q-50 -14 -81 -54t-31 -92v-1252h75v1252q0 58 56 73t85 -36zM833 1403v-1253q0 -57 -56 -72t-84 35l-2 3l-463 1150q-9 15 -27 10q-19 -5 -19 -24v-1252h75
v993l367 -911l3 -5q44 -77 130 -77q20 0 39 5q51 13 82 53q30 40 30 92v1253h-75z" />
    <glyph glyph-name="O" unicode="O" horiz-adv-x="989" 
d="M702 401q0 -83 -59 -142q-58 -59 -141 -59h-50q-83 0 -142 59t-59 142v601q0 83 59 141q59 59 142 59h50q83 0 141 -59q59 -58 59 -141v-601zM452 1277q-114 0 -195 -81q-81 -80 -81 -194v-601q0 -114 81 -195t195 -81h50q114 0 194 81q81 81 81 195v601q0 114 -81 194
q-80 81 -194 81h-50zM827 401q0 -135 -95 -230q-96 -96 -230 -96h-50q-135 0 -230 96q-96 95 -96 230v601q0 134 96 230q95 95 230 95h50q134 0 230 -95q95 -96 95 -230v-601zM452 1402q-166 0 -284 -117q-117 -118 -117 -283v-601q0 -166 117 -284q118 -117 284 -117h50
q165 0 283 117q117 118 117 284v601q0 165 -117 283q-118 117 -283 117h-50z" />
    <glyph glyph-name="P" unicode="P" horiz-adv-x="918" 
d="M349 1402q-125 0 -213 -88t-88 -212v-1102h75v1102q0 93 66 159t160 66h300q52 0 88 -37q37 -36 37 -88v-301q0 -51 -37 -88q-36 -37 -88 -37h-476v-776h75v701h401q83 0 142 59q58 59 58 141v301q0 83 -58 142q-59 58 -142 58h-300zM248 1102q0 41 30 71q29 29 70 29
h301v-301h-401v201zM724 1202q0 31 -22 53t-53 22h-301q-72 0 -123 -51q-52 -52 -52 -124v-276h476q31 0 53 22t22 53v301z" />
    <glyph glyph-name="Q" unicode="Q" horiz-adv-x="974" 
d="M438 1277q-114 0 -195 -81q-81 -80 -81 -194v-601q0 -114 81 -195t195 -81h50q66 0 125 30l-112 179l-63 -40l58 -93q-5 -1 -8 -1h-50q-83 0 -142 59t-59 142v601q0 83 59 141q59 59 142 59h50q83 0 141 -59q59 -58 59 -141v-601q0 -49 -23 -93l-57 93l-64 -40l111 -179
q108 83 108 219v601q0 114 -81 194q-80 81 -194 81h-50zM888 1002q0 165 -117 283q-118 117 -283 117h-50q-166 0 -284 -117q-117 -118 -117 -283v-601q0 -166 117 -284q118 -117 284 -117h50q62 0 121 19l12 -19h88l-70 113q-71 -38 -151 -38h-50q-135 0 -230 96
q-96 95 -96 230v601q0 134 96 230q95 95 230 95h50q134 0 230 -95q95 -96 95 -230v-601q0 -164 -131 -262l87 -139h88l-78 126q109 116 109 275v601z" />
    <glyph glyph-name="R" unicode="R" horiz-adv-x="920" 
d="M648 1327q52 0 89 -37q36 -36 36 -88v-300q0 -52 -36 -89q-37 -37 -89 -37h-354l504 -776h91l-456 701h216q83 0 142 59q58 59 58 142v300q0 83 -58 142q-59 58 -142 58h-301q-124 0 -212 -88t-88 -212v-1102h74v1102q0 93 66 159q67 66 160 66h300zM248 1102q0 41 30 71
q29 29 70 29h301v-300h-401v200zM648 826q31 0 53 22t22 54v300q0 31 -22 53t-53 22h-300q-73 0 -124 -51q-52 -52 -52 -124v-276h476zM234 776h-62v-776h76v618l402 -618h89z" />
    <glyph glyph-name="S" unicode="S" horiz-adv-x="887" 
d="M137 1002q0 -73 52 -124q51 -52 124 -52h200q93 0 159 -66t66 -159v-301q0 -93 -66 -159t-159 -66h-501v-75h501q124 0 212 88t88 212v301q0 124 -88 212t-212 88h-200q-42 0 -71 30q-30 29 -30 71v100q0 41 30 71q29 29 71 29h500v75h-500q-73 0 -124 -51
q-52 -52 -52 -124v-100zM313 1402q-125 0 -213 -88t-88 -212v-100q0 -125 88 -213t213 -88h200q41 0 71 -29q29 -30 29 -71v-300q0 -42 -29 -71q-30 -30 -71 -30h-501v-75h501q72 0 124 52q51 51 51 124v300q0 72 -51 124q-52 51 -124 51h-200q-94 0 -160 66t-66 160v100
q0 93 66 159t160 66h500v75h-500z" />
    <glyph glyph-name="T" unicode="T" horiz-adv-x="948" 
d="M50 1277v-75h324v-1202h75v1277h-399zM50 1327h849v75h-849v-75zM499 1277v-1277h76v1202h324v75h-400z" />
    <glyph glyph-name="U" unicode="U" horiz-adv-x="1004" 
d="M819 1402v-1001q0 -135 -95 -230q-96 -96 -230 -96h-50q-135 0 -230 96q-96 95 -96 230v1001h-75v-1001q0 -166 117 -284q118 -117 284 -117h50q165 0 283 117q117 118 117 284v1001h-75zM494 125q114 0 194 81q81 81 81 195v1001h-75v-1001q0 -83 -59 -142
q-58 -59 -141 -59h-50q-83 0 -142 59t-59 142v1001h-75v-1001q0 -114 81 -195t195 -81h50z" />
    <glyph glyph-name="V" unicode="V" horiz-adv-x="992" 
d="M579 181l237 1221h-76l-215 -1103q-218 898 -268 1103h-77q44 -181 298 -1226q12 -52 51 -51t50 56zM867 1402l-239 -1231q-9 -46 -39 -72q-26 -23 -59 -24h-2q-77 0 -99 90q-261 1074 -301 1237h-77q21 -85 305 -1255q16 -66 63 -107q48 -40 109 -40h4q63 2 109 45
q47 43 61 112l242 1245h-77z" />
    <glyph glyph-name="W" unicode="W" horiz-adv-x="1676" 
d="M567 181l237 1221h-76l-215 -1103q-218 898 -268 1103h-77q44 -181 298 -1226q12 -52 51 -51t50 56zM1557 1402l-240 -1231q-9 -46 -39 -72q-26 -23 -59 -24h-2q-77 0 -99 90q-211 871 -279 1151l-223 -1145q-9 -46 -39 -72q-26 -23 -59 -24h-2q-77 0 -99 90
q-261 1074 -301 1237h-77q21 -85 305 -1255q16 -66 63 -107q48 -40 109 -40h4q63 2 109 45q47 43 61 112l157 807q81 -335 198 -817q16 -66 64 -107q47 -40 108 -40h4q63 2 110 45t60 112l242 1245h-76zM1268 181l238 1221h-77l-214 -1103q-219 898 -269 1103h-77
q44 -181 298 -1226q13 -52 51 -51q39 1 50 56z" />
    <glyph glyph-name="X" unicode="X" horiz-adv-x="896" 
d="M617 1402l-176 -421l-176 421h-82l258 -617l258 617h-82zM47 1402l285 -682l-300 -720h81l301 720l-285 682h-82zM168 0h81l192 459l192 -459h82l-274 655zM754 1402l-285 -682l300 -720h82l-301 720l286 682h-82z" />
    <glyph glyph-name="Y" unicode="Y" horiz-adv-x="991" 
d="M774 826v576h-75v-500h-350q-42 0 -71 29q-30 29 -30 71v400h-75v-400q0 -73 52 -124q51 -52 124 -52h425zM774 776h-425q-94 0 -160 66t-66 160v400h-75v-400q0 -125 88 -213t213 -88h350v-401q0 -41 -29 -70q-30 -30 -71 -30h-551v-75h551q72 0 124 52q51 51 51 123
v476zM824 1402v-1101q0 -94 -66 -160t-159 -66h-551v-75h551q124 0 212 88t88 213v1101h-75z" />
    <glyph glyph-name="Z" unicode="Z" horiz-adv-x="941" 
d="M126 248l1 3l2 2l634 922q13 36 -8 69q-22 33 -63 33h-651v-75h649l-629 -915l-4 -10q-41 -99 18 -188q60 -89 167 -89h651v75h-651q-67 0 -104 56q-38 56 -12 117zM244 200l629 915l4 10q42 99 -18 188q-59 89 -167 89h-651v-75h651q67 0 105 -56q37 -55 11 -117l-1 -3
l-2 -2l-633 -922q-14 -36 7 -68q23 -34 63 -34h651v75h-649z" />
    <glyph glyph-name="underscore" unicode="_" horiz-adv-x="1024" 
d="M0 0h701v75h-701v-75zM0 125h701v75h-701v-75z" />
    <glyph glyph-name="grave" unicode="`" horiz-adv-x="346" 
d="M122 1433v-401h-50v401h-75v-401h200v401h-75z" />
    <glyph glyph-name="a" unicode="a" horiz-adv-x="1044" 
d="M201 776v-530h75v455h451v-455h75v530h-601zM727 901h-451v201q0 41 30 71q29 29 71 29h350v-301zM201 826h601v451h-425q-73 0 -124 -51q-52 -52 -52 -124v-276zM376 1402q-124 0 -212 -88t-88 -212v-642h75v642q0 93 66 159t159 66h476v-1327h75v1402h-551z" />
    <glyph glyph-name="b" unicode="b" horiz-adv-x="986" 
d="M235 701h451v-401q0 -41 -29 -70q-30 -30 -71 -30h-351v501zM160 125h426q72 0 124 52q51 51 51 123v476h-601v-651zM35 1402v-267h75v192h376q134 0 230 -95q95 -96 95 -230v-702q0 -93 -66 -159t-159 -66h-307v-75h307q124 0 212 88t88 212v702q0 165 -117 283
q-118 117 -283 117h-451zM686 901h-451v301h251q83 0 141 -59q59 -58 59 -141v-101zM160 1277v-451h601v176q0 114 -81 194q-80 81 -194 81h-326z" />
    <glyph glyph-name="c" unicode="c" horiz-adv-x="908" 
d="M213 401q0 -114 81 -195t195 -81h216v75h-216q-83 0 -142 59t-59 142v601q0 83 59 141q59 59 142 59h400v75h-400q-114 0 -195 -81q-81 -80 -81 -194v-601zM489 1402q-166 0 -284 -117q-117 -118 -117 -283v-601q0 -166 117 -284q118 -117 284 -117h400v75h-400
q-135 0 -230 96q-96 95 -96 230v601q0 134 96 230q95 95 230 95h400v75h-400z" />
    <glyph glyph-name="d" unicode="d" horiz-adv-x="1053" 
d="M426 1277v-75h129q83 0 141 -59q59 -58 59 -141v-601q0 -83 -59 -142q-58 -59 -141 -59h-251v772h-75v-847h326q114 0 194 81q81 81 81 195v601q0 114 -81 194q-80 81 -194 81h-129zM880 401q0 -135 -95 -230q-96 -96 -230 -96h-376v1252h376q134 0 230 -95
q95 -96 95 -230v-601zM104 1402v-1402h451q165 0 283 117q117 118 117 284v601q0 165 -117 283q-118 117 -283 117h-451z" />
    <glyph glyph-name="e" unicode="e" horiz-adv-x="912" 
d="M209 826h676v75h-601v201q0 41 30 71q29 29 71 29h385v75h-385q-73 0 -124 -51q-52 -52 -52 -124v-276zM209 300q0 -72 52 -123q51 -52 124 -52h500v75h-500q-42 0 -71 30q-30 29 -30 70v401h358v75h-433v-476zM384 1402q-124 0 -212 -88t-88 -212v-801q0 -125 88 -213
t212 -88h343v75h-343q-93 0 -159 66t-66 160v801q0 93 66 159t159 66h501v75h-501z" />
    <glyph glyph-name="f" unicode="f" horiz-adv-x="936" 
d="M222 776v-615h75v540h601v75h-676zM222 826h676v75h-601v201q0 41 30 71q29 29 71 29h381v75h-381q-73 0 -124 -51q-52 -52 -52 -124v-276zM397 1402q-124 0 -212 -88t-88 -212v-1102h75v1102q0 93 66 159t159 66h501v75h-501z" />
    <glyph glyph-name="g" unicode="g" horiz-adv-x="1067" 
d="M439 901v-75h350q52 0 89 -36q36 -37 36 -89v-626h-425q-135 0 -230 96q-96 95 -96 230v601q0 134 96 230q95 95 230 95h400v75h-400q-166 0 -284 -117q-117 -118 -117 -283v-601q0 -166 117 -284q118 -117 284 -117h500v701q0 83 -58 142q-59 58 -142 58h-350zM722 1202
v75h-233q-114 0 -195 -81q-81 -80 -81 -194v-601q0 -114 81 -195t195 -81h375v576q0 31 -22 53t-53 22h-237v-75h237v-501h-300q-83 0 -142 59t-59 142v601q0 83 59 141q59 59 142 59h233z" />
    <glyph glyph-name="h" unicode="h" horiz-adv-x="1068" 
d="M104 0h75v1402h-75v-1402zM755 1402v-501h-451v285h-75v-360h601v576h-75zM229 776v-615h75v540h451v-412h75v487h-601zM880 0h75v1271h-75v-1271z" />
    <glyph glyph-name="i" unicode="i" horiz-adv-x="428" 
d="M231 0h75v1402h-75v-1402zM106 0h75v1402h-75v-1402z" />
    <glyph glyph-name="j" unicode="j" horiz-adv-x="579" 
d="M338 1143h-76v-843q0 -41 -29 -70q-29 -30 -71 -30h-150v-75h150q73 0 124 52q52 51 52 123v843zM388 1402v-1101q0 -94 -66 -160q-67 -66 -160 -66h-76v-75h76q125 0 213 88t88 213v1101h-75z" />
    <glyph glyph-name="k" unicode="k" horiz-adv-x="871" 
d="M716 1271l-458 -451l590 -820h93l-585 812l466 459h-106zM664 1402l-360 -359v359h-75v-540l541 540h-106zM229 161h75v380l390 -541h92l-557 774v-613zM104 0h75v1402h-75v-1402z" />
    <glyph glyph-name="l" unicode="l" horiz-adv-x="882" 
d="M173 1402h-75v-1102q0 -124 88 -212t213 -88h500v75h-500q-94 0 -160 66t-66 159v1102zM399 200q-42 0 -71 30q-30 29 -30 70v928h-75v-928q0 -72 52 -123q51 -52 124 -52h377v75h-377z" />
    <glyph glyph-name="m" unicode="m" horiz-adv-x="1219" 
d="M301 1277q-31 0 -53 -22t-22 -53v-956h75v956h201v-451h75v526h-276zM301 1402q-83 0 -141 -58q-59 -59 -59 -142v-1202h75v1202q0 52 37 88q37 37 88 37h601q52 0 89 -37q37 -36 37 -88v-1084h75v1084q0 83 -59 142q-59 58 -142 58h-601zM627 1277v-390h75v315h200
v-1202h75v1202q0 31 -22 53t-53 22h-275z" />
    <glyph glyph-name="n" unicode="n" horiz-adv-x="1066" 
d="M317 1289l1 -3l463 -1149q10 -15 28 -11q18 5 18 24v1036h-75v-776l-367 910l-3 6q-26 45 -72 65q-47 20 -97 7q-50 -14 -81 -54t-31 -92v-1252h75v1252q0 58 56 73t85 -36zM877 1403v-1253q0 -57 -56 -72t-84 35l-2 3l-463 1150q-9 15 -27 10q-19 -5 -19 -24v-1006h75
v747l367 -911l3 -5q44 -77 130 -77q20 0 39 5q51 13 82 53q30 40 30 92v1253h-75z" />
    <glyph glyph-name="o" unicode="o" horiz-adv-x="1016" 
d="M489 1277q-114 0 -195 -81q-81 -80 -81 -194v-372h75v372q0 83 59 141q59 59 142 59h50q83 0 141 -59q59 -58 59 -141v-601q0 -83 -59 -142q-58 -59 -141 -59h-50q-83 0 -142 59t-59 142v133h-75v-133q0 -114 81 -195t195 -81h50q114 0 194 81q81 81 81 195v601
q0 114 -81 194q-80 81 -194 81h-50zM864 588v-187q0 -135 -95 -230q-96 -96 -230 -96h-50q-135 0 -230 96q-96 95 -96 230v601q0 134 96 230q95 95 230 95h50q134 0 230 -95q95 -96 95 -230v-73h75v73q0 165 -117 283q-118 117 -283 117h-50q-166 0 -284 -117
q-117 -118 -117 -283v-601q0 -166 117 -284q118 -117 284 -117h50q165 0 283 117q117 118 117 284v187h-75z" />
    <glyph glyph-name="p" unicode="p" horiz-adv-x="964" 
d="M398 1402q-125 0 -213 -88t-88 -212v-1102h75v1102q0 93 66 159t160 66h300q52 0 88 -37q37 -36 37 -88v-301q0 -51 -37 -88q-36 -37 -88 -37h-476v-573h75v498h401q83 0 142 59q58 59 58 141v301q0 83 -58 142q-59 58 -142 58h-300zM297 1102q0 41 30 71q29 29 70 29
h301v-301h-401v201zM773 1202q0 31 -22 53t-53 22h-301q-72 0 -123 -51q-52 -52 -52 -124v-276h476q31 0 53 22t22 53v301z" />
    <glyph glyph-name="q" unicode="q" horiz-adv-x="1038" 
d="M489 294l58 -93q-5 -1 -8 -1h-50q-83 0 -142 59t-59 142v315h-75v-315q0 -114 81 -195t195 -81h50q66 0 125 30l-112 179zM489 1277q-114 0 -195 -81q-81 -80 -81 -194v-134h75v134q0 83 59 141q59 59 142 59h50q83 0 141 -59q59 -58 59 -141v-601q0 -49 -23 -93l-57 93
l-64 -40l111 -179q108 83 108 219v601q0 114 -81 194q-80 81 -194 81h-50zM939 1002q0 165 -117 283q-118 117 -283 117h-50q-166 0 -284 -117q-117 -118 -117 -283v-601q0 -166 117 -284q118 -117 284 -117h50q62 0 121 19l12 -19h88l-70 113q-71 -38 -151 -38h-50
q-135 0 -230 96q-96 95 -96 230v601q0 134 96 230q95 95 230 95h50q134 0 230 -95q95 -96 95 -230v-601q0 -164 -131 -262l87 -139h88l-78 126q109 116 109 275v601z" />
    <glyph glyph-name="r" unicode="r" horiz-adv-x="958" 
d="M696 1327q52 0 89 -37q36 -36 36 -88v-300q0 -52 -36 -89q-37 -37 -89 -37h-354l374 -573h91l-326 498h216q83 0 142 59q58 59 58 142v300q0 83 -58 142q-59 58 -142 58h-301q-124 0 -212 -88t-88 -212v-1102h74v1102q0 93 66 159q67 66 160 66h300zM296 1102q0 41 30 71
q29 29 70 29h301v-300h-401v200zM696 826q31 0 53 22t22 54v300q0 31 -22 53t-53 22h-300q-73 0 -124 -51q-52 -52 -52 -124v-276h476zM282 776h-62v-573h76v415l402 -618h89z" />
    <glyph glyph-name="s" unicode="s" horiz-adv-x="929" 
d="M167 1002q0 -73 52 -124q51 -52 124 -52h200q93 0 159 -66t66 -159v-301q0 -93 -66 -159t-159 -66h-284v-75h284q124 0 212 88t88 212v301q0 124 -88 212t-212 88h-200q-42 0 -71 30q-30 29 -30 71v100q0 41 30 71q29 29 71 29h257v75h-257q-73 0 -124 -51
q-52 -52 -52 -124v-100zM342 1402q-124 0 -212 -88t-88 -212v-100q0 -125 88 -213t212 -88h201q41 0 71 -29q29 -30 29 -71v-300q0 -42 -29 -71q-30 -30 -71 -30h-501v-75h501q72 0 124 52q51 51 51 124v300q0 72 -51 124q-52 51 -124 51h-201q-93 0 -159 66t-66 160v100
q0 93 66 159t159 66h501v75h-501z" />
    <glyph glyph-name="t" unicode="t" horiz-adv-x="878" 
d="M99 1277v-75h244v-1202h75v1277h-319zM19 1327h849v75h-849v-75zM468 1277v-1116h76v1041h324v75h-400z" />
    <glyph glyph-name="u" unicode="u" horiz-adv-x="1055" 
d="M870 1402v-1001q0 -135 -95 -230q-96 -96 -230 -96h-50q-135 0 -230 96q-96 95 -96 230v1001h-75v-1001q0 -166 117 -284q118 -117 284 -117h50q165 0 283 117q117 118 117 284v1001h-75zM545 125q114 0 194 81q81 81 81 195v870h-75v-870q0 -83 -59 -142
q-58 -59 -141 -59h-50q-83 0 -142 59t-59 142v614h-75v-614q0 -114 81 -195t195 -81h50z" />
    <glyph glyph-name="v" unicode="v" horiz-adv-x="992" 
d="M581 181l237 1221h-76l-215 -1103q-100 413 -215 887h-78q98 -400 246 -1010q12 -52 51 -51t50 56zM869 1402l-239 -1231q-9 -46 -39 -72q-26 -23 -59 -24h-2q-77 0 -99 90q-261 1074 -301 1237h-77q21 -85 305 -1255q16 -66 63 -107q48 -40 109 -40h4q63 2 109 45
q47 43 61 112l242 1245h-77z" />
    <glyph glyph-name="w" unicode="w" horiz-adv-x="1675" 
d="M592 181l237 1221h-76l-215 -1103q-88 362 -140 576q-58 233 -56 225h-77q6 -27 90 -368q77 -314 136 -556q12 -52 51 -51t50 56zM1582 1402l-240 -1231q-9 -46 -39 -72q-26 -23 -59 -24h-2q-77 0 -99 90q-211 871 -279 1151l-223 -1145q-9 -46 -39 -72q-26 -23 -59 -24
h-2q-77 0 -99 90q-261 1074 -301 1237h-77q21 -85 305 -1255q16 -66 63 -107q48 -40 109 -40h4q63 2 109 45q47 43 61 112l157 807q81 -335 198 -817q16 -66 64 -107q47 -40 108 -40h4q63 2 110 45t60 112l242 1245h-76zM1293 181l151 791h-77l-127 -673q-219 898 -269 1103
h-77q44 -181 298 -1226q13 -52 51 -51q39 1 50 56z" />
    <glyph glyph-name="x" unicode="x" horiz-adv-x="841" 
d="M603 1402l-176 -421l-176 421h-82l258 -617l258 617h-82zM33 1402l285 -682l-300 -720h81l301 720l-285 682h-82zM257 246h81l89 213l192 -459h82l-274 655zM740 1402l-285 -682l300 -720h82l-301 720l286 682h-82z" />
    <glyph glyph-name="y" unicode="y" horiz-adv-x="1016" 
d="M782 826v576h-75v-501h-350q-42 0 -71 30q-30 29 -30 71v226h-75v-226q0 -73 52 -124q51 -52 124 -52h425zM782 776h-425q-94 0 -160 66t-66 160v400h-75v-400q0 -125 88 -213t213 -88h350v-401q0 -41 -29 -70q-30 -30 -71 -30h-345v-75h345q72 0 124 52q51 51 51 123
v476zM832 1314v-1014q0 -93 -66 -159t-159 -66h-551v-75h551q124 0 212 88t88 212v1014h-75z" />
    <glyph glyph-name="z" unicode="z" horiz-adv-x="915" 
d="M118 248l1 3l2 2l634 922q13 36 -8 69q-22 33 -63 33h-464v-75h462l-629 -915l-4 -10q-41 -99 18 -188q60 -89 167 -89h651v75h-651q-67 0 -104 56q-38 56 -12 117zM236 200l629 915l4 10q42 99 -18 188q-59 89 -167 89h-651v-75h651q67 0 105 -56q37 -55 11 -117l-1 -3
l-2 -2l-633 -922q-14 -36 7 -68q23 -34 63 -34h285v75h-283z" />
    <glyph glyph-name="quoteleft" unicode="&#x2018;" horiz-adv-x="346" 
d="M122 1433v-401h-50v401h-75v-401h200v401h-75z" />
    <glyph glyph-name="quoteright" unicode="&#x2019;" horiz-adv-x="346" 
d="M122 1433v-401h-50v401h-75v-401h200v401h-75z" />
    <glyph glyph-name="quotesinglbase" unicode="&#x201a;" horiz-adv-x="346" 
d="M122 1433v-401h-50v401h-75v-401h200v401h-75z" />
    <glyph glyph-name="quotedblleft" unicode="&#x201c;" horiz-adv-x="346" 
d="M122 1433v-401h-50v401h-75v-401h200v401h-75z" />
    <glyph glyph-name="quotedblright" unicode="&#x201d;" horiz-adv-x="346" 
d="M122 1433v-401h-50v401h-75v-401h200v401h-75z" />
    <glyph glyph-name="uniF001" unicode="&#xf001;" horiz-adv-x="1073" 
 />
    <glyph glyph-name="uniF001" unicode="&#xfb01;" horiz-adv-x="1073" 
 />
    <glyph glyph-name="uniF002" unicode="&#xf002;" horiz-adv-x="1081" 
 />
    <glyph glyph-name="uniF002" unicode="&#xfb02;" horiz-adv-x="1081" 
 />
  </font>
</defs>
</svg>
